<svg width="14" height="14" viewBox="0 0 14 14" fill="none" xmlns="http://www.w3.org/2000/svg">
<path d="M3.32656 10.6716H1.87656C1.51408 10.6414 1.17618 10.4761 0.929881 10.2084C0.683581 9.94076 0.546875 9.5903 0.546875 9.22657C0.546875 8.86283 0.683581 8.51238 0.929881 8.24472C1.17618 7.97706 1.51408 7.81175 1.87656 7.78157H4.17656L5.65656 6.30157L1.59656 3.80157C1.284 3.60835 1.05646 3.30366 0.959929 2.94911C0.863401 2.59455 0.905087 2.21657 1.07656 1.89157C1.15226 1.70557 1.26526 1.53705 1.4086 1.39642C1.55193 1.25578 1.72256 1.146 1.90997 1.07385C2.09737 1.0017 2.29756 0.968705 2.4982 0.976912C2.69885 0.985119 2.89568 1.03435 3.07656 1.12157L8.37656 3.57157L10.9366 0.981563C11.2124 0.705738 11.5865 0.550781 11.9766 0.550781C12.3667 0.550781 12.7408 0.705738 13.0166 0.981563C13.2924 1.25739 13.4474 1.63149 13.4474 2.02157C13.4474 2.41164 13.2924 2.78574 13.0166 3.06157L10.4266 5.62157L12.8766 10.9716C12.9572 11.1497 13.0012 11.3423 13.0059 11.5378C13.0107 11.7332 12.9762 11.9277 12.9043 12.1096C12.8325 12.2914 12.7249 12.457 12.5879 12.5965C12.4508 12.736 12.2872 12.8466 12.1066 12.9216C11.7816 13.0931 11.4036 13.1347 11.0491 13.0382C10.6945 12.9417 10.3898 12.7141 10.1966 12.4016L7.69656 8.34157L6.21656 9.82157V12.1216C6.18638 12.4841 6.02107 12.822 5.75341 13.0683C5.48575 13.3146 5.1353 13.4513 4.77156 13.4513C4.40783 13.4513 4.05737 13.3146 3.78972 13.0683C3.52206 12.822 3.35674 12.4841 3.32656 12.1216V10.6716Z" stroke="white" stroke-linecap="round" stroke-linejoin="round"/>
</svg>
