<svg width="14" height="14" viewBox="0 0 14 14" fill="none" xmlns="http://www.w3.org/2000/svg">
<g clip-path="url(#clip0_150_14986)">
<path d="M7 13.5C10.5899 13.5 13.5 10.5899 13.5 7C13.5 3.41015 10.5899 0.5 7 0.5C3.41015 0.5 0.5 3.41015 0.5 7C0.5 10.5899 3.41015 13.5 7 13.5Z" stroke="white" stroke-linecap="round" stroke-linejoin="round"/>
<path d="M5.25 5.25C5.25 4.90388 5.35273 4.56554 5.5452 4.27775C5.73766 3.98997 6.01123 3.76567 6.33129 3.63321C6.65135 3.50076 7.00354 3.46611 7.34331 3.53363C7.68309 3.60115 7.99519 3.76782 8.24016 4.01257C8.48512 4.25731 8.65194 4.56913 8.71953 4.90859C8.78711 5.24806 8.75243 5.59992 8.61985 5.91969C8.48728 6.23946 8.26277 6.51277 7.97472 6.70506C7.68668 6.89735 7.34802 6.99999 7.00159 6.99999V8.16665" stroke="white" stroke-linecap="round" stroke-linejoin="round"/>
<path d="M7 10.457C6.86193 10.457 6.75 10.3451 6.75 10.207C6.75 10.0689 6.86193 9.95703 7 9.95703" stroke="white" stroke-linecap="round" stroke-linejoin="round"/>
<path d="M7 10.457C7.13807 10.457 7.25 10.3451 7.25 10.207C7.25 10.0689 7.13807 9.95703 7 9.95703" stroke="white" stroke-linecap="round" stroke-linejoin="round"/>
</g>
<defs>
<clipPath id="clip0_150_14986">
<rect width="14" height="14" fill="white"/>
</clipPath>
</defs>
</svg>
