<svg width="14" height="14" viewBox="0 0 14 14" fill="none" xmlns="http://www.w3.org/2000/svg">
<g clip-path="url(#clip0_150_15036)">
<path d="M3.48438 8.67969H10.5214V13.3897H3.48438V8.67969Z" stroke="white" stroke-linecap="round" stroke-linejoin="round"/>
<path d="M5.07031 5.98047H8.88056" stroke="white" stroke-linecap="round" stroke-linejoin="round"/>
<path d="M5.94531 11.6316C5.94531 11.0476 6.41875 10.5742 7.00277 10.5742C7.58679 10.5742 8.06023 11.0476 8.06023 11.6316V13.3928H5.94531V11.6316Z" stroke="white" stroke-linecap="round" stroke-linejoin="round"/>
<path d="M5.07033 8.67929L5.07031 5.96875L6.97969 3.03125L8.88907 5.96875L8.88908 8.67929" stroke="white" stroke-linecap="round" stroke-linejoin="round"/>
<path d="M0.59375 6.71403V13.3927H3.48499V6.71403L2.03937 4.51562L0.59375 6.71403Z" stroke="white" stroke-linecap="round" stroke-linejoin="round"/>
<path d="M10.5234 6.71403V13.3927H13.4146V6.71403L11.969 4.51562L10.5234 6.71403Z" stroke="white" stroke-linecap="round" stroke-linejoin="round"/>
<path d="M6.97668 3.03293L6.97656 0.550782L8.22695 0.550781" stroke="white" stroke-linecap="round" stroke-linejoin="round"/>
</g>
<defs>
<clipPath id="clip0_150_15036">
<rect width="14" height="14" fill="white"/>
</clipPath>
</defs>
</svg>
