<svg width="14" height="14" viewBox="0 0 14 14" fill="none" xmlns="http://www.w3.org/2000/svg">
<g clip-path="url(#clip0_150_15053)">
<path d="M10.5 8.50313C10.4999 9.34184 10.2889 10.1671 9.88634 10.9028C9.48376 11.6386 8.90256 12.2613 8.19625 12.7136C7.48994 13.1658 6.68121 13.4332 5.8445 13.4909C5.00779 13.5487 4.16998 13.3951 3.4082 13.0442C2.64642 12.6933 1.98515 12.1565 1.48524 11.483C0.985338 10.8096 0.662869 10.0212 0.547517 9.19047C0.432166 8.35974 0.527638 7.51333 0.825147 6.72917C1.12266 5.94501 1.61264 5.24828 2.25 4.70312" stroke="white" stroke-linecap="round" stroke-linejoin="round"/>
<path d="M5.27722 6.65234C5.17154 6.87054 5.11683 7.1099 5.11722 7.35234C5.11589 7.55364 5.15456 7.75319 5.23098 7.93942C5.3074 8.12565 5.42004 8.29484 5.56238 8.43718C5.70472 8.57952 5.87392 8.69217 6.06014 8.76859C6.24637 8.84501 6.44593 8.88367 6.64722 8.88234C6.85144 8.88234 7.04729 8.96347 7.19169 9.10787C7.33609 9.25228 7.41722 9.44813 7.41722 9.65234V13.1223" stroke="white" stroke-linecap="round" stroke-linejoin="round"/>
<path d="M0.570312 9.27005H2.42032C2.62589 9.26471 2.83046 9.3006 3.02194 9.37559C3.21342 9.45059 3.38795 9.56318 3.53521 9.70672C3.68248 9.85025 3.7995 10.0218 3.87938 10.2113C3.95927 10.4008 4.00039 10.6044 4.00032 10.8101V13.2601" stroke="white" stroke-linecap="round" stroke-linejoin="round"/>
<path d="M13.2583 1.9717L12.2583 1.6317C12.1881 1.60782 12.1119 1.6076 12.0415 1.63108C11.971 1.65455 11.9102 1.70043 11.8683 1.7617L11.1383 2.8917L7.13835 0.891697C6.82221 0.705385 6.46881 0.591249 6.10341 0.557456C5.73802 0.523663 5.36967 0.571049 5.02473 0.696222C4.67979 0.821396 4.36677 1.02126 4.10809 1.28152C3.8494 1.54178 3.65143 1.856 3.52835 2.2017C3.49443 2.29138 3.47986 2.38722 3.48559 2.48293C3.49132 2.57864 3.51723 2.67206 3.56161 2.75705C3.606 2.84204 3.66785 2.91668 3.74312 2.97608C3.81839 3.03548 3.90537 3.07829 3.99835 3.1017L6.60835 3.9417L6.86835 4.0317L7.35835 5.7117C7.37409 5.77019 7.40434 5.82377 7.44629 5.86748C7.48824 5.91118 7.54054 5.94358 7.59835 5.9617L8.77835 6.3417C8.83859 6.36132 8.90287 6.36515 8.96501 6.35281C9.02716 6.34047 9.08509 6.31238 9.13327 6.27123C9.18144 6.23008 9.21824 6.17725 9.24015 6.1178C9.26205 6.05835 9.26832 5.99427 9.25835 5.9317L8.99835 4.6817H9.16835L11.7183 5.5117C11.8855 5.5693 12.0686 5.55854 12.2278 5.48174C12.387 5.40494 12.5094 5.26834 12.5683 5.1017L13.4683 2.3317C13.4782 2.25689 13.463 2.18092 13.425 2.11575C13.3869 2.05057 13.3283 1.99989 13.2583 1.9717Z" stroke="white" stroke-linecap="round" stroke-linejoin="round"/>
</g>
<defs>
<clipPath id="clip0_150_15053">
<rect width="14" height="14" fill="white"/>
</clipPath>
</defs>
</svg>
