<svg width="23" height="24" viewBox="0 0 23 24" fill="none" xmlns="http://www.w3.org/2000/svg">
<path d="M21.9437 19.2992C21.3753 18.0026 20.5504 16.8249 19.5149 15.8316C18.4826 14.8354 17.2598 14.0412 15.9139 13.4927C15.9019 13.4869 15.8898 13.484 15.8778 13.4782C17.7551 12.1724 18.9755 10.0454 18.9755 7.64565C18.9755 3.6702 15.6307 0.449219 11.5023 0.449219C7.37396 0.449219 4.02909 3.6702 4.02909 7.64565C4.02909 10.0454 5.24952 12.1724 7.12686 13.4811C7.11481 13.4869 7.10275 13.4898 7.0907 13.4956C5.7407 14.0441 4.52932 14.8305 3.4897 15.8345C2.45523 16.8285 1.63045 18.0061 1.0609 19.3021C0.501381 20.5709 0.199619 21.9313 0.17195 23.3095C0.171146 23.3405 0.176787 23.3713 0.188542 23.4001C0.200296 23.4289 0.217926 23.4552 0.240392 23.4774C0.262858 23.4996 0.289706 23.5172 0.319354 23.5292C0.349002 23.5413 0.38085 23.5474 0.413022 23.5474H2.22106C2.35365 23.5474 2.45912 23.4459 2.46213 23.3211C2.5224 21.0809 3.45655 18.9829 5.10789 17.3927C6.81648 15.7474 9.08557 14.8421 11.5023 14.8421C13.919 14.8421 16.1881 15.7474 17.8967 17.3927C19.5481 18.9829 20.4822 21.0809 20.5425 23.3211C20.5455 23.4488 20.651 23.5474 20.7836 23.5474H22.5916C22.6238 23.5474 22.6556 23.5413 22.6853 23.5292C22.7149 23.5172 22.7418 23.4996 22.7642 23.4774C22.7867 23.4552 22.8043 23.4289 22.8161 23.4001C22.8278 23.3713 22.8335 23.3405 22.8327 23.3095C22.8025 21.9224 22.5042 20.5731 21.9437 19.2992ZM11.5023 12.6367C10.1192 12.6367 8.81737 12.1173 7.83802 11.1742C6.85867 10.2311 6.31927 8.97757 6.31927 7.64565C6.31927 6.31373 6.85867 5.06016 7.83802 4.11708C8.81737 3.174 10.1192 2.65458 11.5023 2.65458C12.8855 2.65458 14.1872 3.174 15.1666 4.11708C16.1459 5.06016 16.6853 6.31373 16.6853 7.64565C16.6853 8.97757 16.1459 10.2311 15.1666 11.1742C14.1872 12.1173 12.8855 12.6367 11.5023 12.6367Z" fill="#40484B"/>
</svg>
