<svg width="14" height="14" viewBox="0 0 14 14" fill="none" xmlns="http://www.w3.org/2000/svg">
<path d="M2 11.0013H1.5C1.23478 11.0013 0.98043 10.896 0.792893 10.7084C0.605357 10.5209 0.5 10.2665 0.5 10.0013V8.00136C0.5 7.73614 0.605357 7.48179 0.792893 7.29425C0.98043 7.10671 1.23478 7.00136 1.5 7.00136H3L3.77 4.68136C3.83958 4.47438 3.975 4.29586 4.15557 4.17307C4.33614 4.05028 4.55193 3.98998 4.77 4.00136H8.78C8.99807 3.98998 9.21386 4.05028 9.39443 4.17307C9.575 4.29586 9.71042 4.47438 9.78 4.68136L10.5 7.00136H12.5C12.7652 7.00136 13.0196 7.10671 13.2071 7.29425C13.3946 7.48179 13.5 7.73614 13.5 8.00136V10.0013C13.5 10.2665 13.3946 10.5209 13.2071 10.7084C13.0196 10.896 12.7652 11.0013 12.5 11.0013H12" stroke="white" stroke-linecap="round" stroke-linejoin="round"/>
<path d="M10.501 12.4982C9.67204 12.4982 9 11.8262 9 10.9972C9 10.1681 9.67204 9.49609 10.501 9.49609C11.3301 9.49609 12.0021 10.1681 12.0021 10.9972C12.0021 11.8262 11.3301 12.4982 10.501 12.4982Z" stroke="white" stroke-linecap="round" stroke-linejoin="round"/>
<path d="M3.50106 12.4982C2.67205 12.4982 2 11.8262 2 10.9972C2 10.1682 2.67205 9.49609 3.50106 9.49609C4.33007 9.49609 5.00212 10.1682 5.00212 10.9972C5.00212 11.8262 4.33007 12.4982 3.50106 12.4982Z" stroke="white" stroke-linecap="round" stroke-linejoin="round"/>
<path d="M8.99789 11H5" stroke="white" stroke-linecap="round" stroke-linejoin="round"/>
<path d="M7 4V2" stroke="white" stroke-linecap="round" stroke-linejoin="round"/>
</svg>
