<svg width="20" height="20" viewBox="0 0 20 20" fill="none" xmlns="http://www.w3.org/2000/svg">
<path d="M4.00608 3.96799L3.77909 3.52248L3.77909 3.52248L4.00608 3.96799ZM3.13205 4.84202L2.68655 4.61502L2.68655 4.61502L3.13205 4.84202ZM3.13205 15.158L2.68655 15.385H2.68655L3.13205 15.158ZM4.00608 16.032L4.23308 15.5865H4.23308L4.00608 16.032ZM15.9887 16.032L15.7617 15.5865H15.7617L15.9887 16.032ZM16.8627 15.158L17.3082 15.385L16.8627 15.158ZM16.8884 12.0156L16.8738 11.5158H16.8738L16.8884 12.0156ZM16.6937 12.0213L16.7084 12.5211L16.6937 12.0213ZM16.8627 4.84202L16.4172 5.06901V5.06901L16.8627 4.84202ZM15.9887 3.96799L15.7617 4.41349V4.41349L15.9887 3.96799ZM6.11406 4.25H12.2763V3.25H6.11406V4.25ZM4.23308 4.41349C4.36475 4.3464 4.5386 4.30031 4.84118 4.27559C5.1496 4.25039 5.54576 4.25 6.11406 4.25V3.25C5.56226 3.25 5.11834 3.24961 4.75975 3.27891C4.39533 3.30868 4.07523 3.37159 3.77909 3.52248L4.23308 4.41349ZM3.57755 5.06901C3.72136 4.78677 3.95083 4.5573 4.23308 4.41349L3.77909 3.52248C3.30868 3.76217 2.92623 4.14462 2.68655 4.61502L3.57755 5.06901ZM3.41406 6.95C3.41406 6.3817 3.41445 5.98554 3.43965 5.67712C3.46437 5.37454 3.51046 5.20069 3.57755 5.06901L2.68655 4.61502C2.53565 4.91117 2.47275 5.23126 2.44297 5.59569C2.41367 5.95428 2.41406 6.3982 2.41406 6.95H3.41406ZM3.41406 7.72436V6.95H2.41406V7.72436H3.41406ZM3.10637 7.41667C3.2763 7.41667 3.41406 7.55443 3.41406 7.72436H2.41406C2.41406 8.10671 2.72402 8.41667 3.10637 8.41667V7.41667ZM3.33073 7.41667H3.10637V8.41667H3.33073V7.41667ZM5.91406 10C5.91406 8.57326 4.75747 7.41667 3.33073 7.41667V8.41667C4.20518 8.41667 4.91406 9.12555 4.91406 10H5.91406ZM3.33073 12.5833C4.75746 12.5833 5.91406 11.4267 5.91406 10H4.91406C4.91406 10.8745 4.20518 11.5833 3.33073 11.5833V12.5833ZM3.10637 12.5833H3.33073V11.5833H3.10637V12.5833ZM3.41406 12.2756C3.41406 12.4456 3.2763 12.5833 3.10637 12.5833V11.5833C2.72402 11.5833 2.41406 11.8933 2.41406 12.2756H3.41406ZM3.41406 13.05V12.2756H2.41406V13.05H3.41406ZM3.57755 14.931C3.51046 14.7993 3.46437 14.6255 3.43965 14.3229C3.41445 14.0145 3.41406 13.6183 3.41406 13.05H2.41406C2.41406 13.6018 2.41367 14.0457 2.44297 14.4043C2.47275 14.7687 2.53565 15.0888 2.68655 15.385L3.57755 14.931ZM4.23308 15.5865C3.95083 15.4427 3.72136 15.2132 3.57755 14.931L2.68655 15.385C2.92623 15.8554 3.30868 16.2378 3.77909 16.4775L4.23308 15.5865ZM6.11407 15.75C5.54576 15.75 5.1496 15.7496 4.84118 15.7244C4.5386 15.6997 4.36475 15.6536 4.23308 15.5865L3.77909 16.4775C4.07523 16.6284 4.39533 16.6913 4.75975 16.7211C5.11834 16.7504 5.56226 16.75 6.11407 16.75V15.75ZM13.8807 15.75H6.11407V16.75H13.8807V15.75ZM15.7617 15.5865C15.63 15.6536 15.4562 15.6997 15.1536 15.7244C14.8452 15.7496 14.449 15.75 13.8807 15.75V16.75C14.4325 16.75 14.8765 16.7504 15.235 16.7211C15.5995 16.6913 15.9196 16.6284 16.2157 16.4775L15.7617 15.5865ZM16.4172 14.931C16.2734 15.2132 16.044 15.4427 15.7617 15.5865L16.2157 16.4775C16.6861 16.2378 17.0686 15.8554 17.3082 15.385L16.4172 14.931ZM16.5807 13.05C16.5807 13.6183 16.5803 14.0145 16.5551 14.3229C16.5304 14.6255 16.4843 14.7993 16.4172 14.931L17.3082 15.385C17.4591 15.0888 17.522 14.7687 17.5518 14.4043C17.5811 14.0457 17.5807 13.6018 17.5807 13.05H16.5807ZM16.5807 12.2024V13.05H17.5807V12.2024H16.5807ZM16.9031 12.5154C16.7266 12.5206 16.5807 12.3789 16.5807 12.2024H17.5807C17.5807 11.8152 17.2608 11.5045 16.8738 11.5158L16.9031 12.5154ZM16.7084 12.5211L16.9031 12.5154L16.8738 11.5158L16.679 11.5215L16.7084 12.5211ZM14.0807 9.96944C14.0807 11.4086 15.2698 12.5633 16.7084 12.5211L16.679 11.5215C15.804 11.5472 15.0807 10.8449 15.0807 9.96944H14.0807ZM16.6335 7.41667C15.2236 7.41667 14.0807 8.55958 14.0807 9.96944H15.0807C15.0807 9.11187 15.7759 8.41667 16.6335 8.41667V7.41667ZM16.8884 7.41667H16.6335V8.41667H16.8884V7.41667ZM16.5807 7.72436C16.5807 7.55443 16.7185 7.41667 16.8884 7.41667V8.41667C17.2708 8.41667 17.5807 8.10671 17.5807 7.72436H16.5807ZM16.5807 6.95V7.72436H17.5807V6.95H16.5807ZM16.4172 5.06901C16.4843 5.20069 16.5304 5.37454 16.5551 5.67712C16.5803 5.98554 16.5807 6.3817 16.5807 6.95H17.5807C17.5807 6.3982 17.5811 5.95428 17.5518 5.59569C17.522 5.23126 17.4591 4.91117 17.3082 4.61502L16.4172 5.06901ZM15.7617 4.41349C16.044 4.5573 16.2734 4.78677 16.4172 5.06901L17.3082 4.61502C17.0686 4.14462 16.6861 3.76217 16.2157 3.52248L15.7617 4.41349ZM14.7067 4.25505C15.3001 4.26785 15.5682 4.31488 15.7617 4.41349L16.2157 3.52248C15.7994 3.31034 15.3232 3.26812 14.7282 3.25528L14.7067 4.25505ZM13.9974 4V5H14.9974V4H13.9974ZM13.9974 5C13.9974 5.27614 13.7735 5.5 13.4974 5.5V6.5C14.3258 6.5 14.9974 5.82843 14.9974 5H13.9974ZM13.4974 5.5C13.2213 5.5 12.9974 5.27614 12.9974 5H11.9974C11.9974 5.82843 12.669 6.5 13.4974 6.5V5.5ZM12.9974 5V4H11.9974V5H12.9974ZM13.4974 8.5C13.7735 8.5 13.9974 8.72386 13.9974 9H14.9974C14.9974 8.17157 14.3258 7.5 13.4974 7.5V8.5ZM12.9974 9C12.9974 8.72386 13.2213 8.5 13.4974 8.5V7.5C12.669 7.5 11.9974 8.17157 11.9974 9H12.9974ZM12.9974 10V9H11.9974V10H12.9974ZM13.4974 10.5C13.2213 10.5 12.9974 10.2761 12.9974 10H11.9974C11.9974 10.8284 12.669 11.5 13.4974 11.5V10.5ZM13.9974 10C13.9974 10.2761 13.7735 10.5 13.4974 10.5V11.5C14.3258 11.5 14.9974 10.8284 14.9974 10H13.9974ZM13.9974 9V10H14.9974V9H13.9974ZM13.4974 13.5C13.7735 13.5 13.9974 13.7239 13.9974 14H14.9974C14.9974 13.1716 14.3258 12.5 13.4974 12.5V13.5ZM12.9974 14C12.9974 13.7239 13.2213 13.5 13.4974 13.5V12.5C12.669 12.5 11.9974 13.1716 11.9974 14H12.9974ZM12.9974 15V14H11.9974V15H12.9974ZM13.4974 15.5C13.2213 15.5 12.9974 15.2761 12.9974 15H11.9974C11.9974 15.8284 12.669 16.5 13.4974 16.5V15.5ZM13.9974 15C13.9974 15.2761 13.7735 15.5 13.4974 15.5V16.5C14.3258 16.5 14.9974 15.8284 14.9974 15H13.9974ZM13.9974 14V15H14.9974V14H13.9974ZM14.7282 3.25528C14.2414 3.24478 13.9974 3.67977 13.9974 4H14.9974C14.9974 4.05504 14.9786 4.10878 14.9395 4.15439C14.8972 4.20377 14.8159 4.25741 14.7067 4.25505L14.7282 3.25528ZM12.2763 4.25C12.1709 4.25 12.0933 4.19753 12.0529 4.14969C12.0154 4.10536 11.9974 4.05337 11.9974 4H12.9974C12.9974 3.67821 12.7561 3.25 12.2763 3.25V4.25Z" fill="white"/>
</svg>
