<svg width="27" height="22" viewBox="0 0 27 22" fill="none" xmlns="http://www.w3.org/2000/svg">
<path d="M9.52445 16.5657H17.4798C17.6124 16.5657 17.7209 16.4613 17.7209 16.3336V13.8961C17.7209 13.7684 17.6124 13.664 17.4798 13.664H16.2744C16.1419 13.664 16.0334 13.7684 16.0334 13.8961V14.9407H10.9709V13.8961C10.9709 13.7684 10.8624 13.664 10.7298 13.664H9.52445C9.39186 13.664 9.28337 13.7684 9.28337 13.8961V16.3336C9.28337 16.4613 9.39186 16.5657 9.52445 16.5657ZM19.77 12.9965C19.77 13.3044 19.897 13.5996 20.123 13.8173C20.3491 14.035 20.6557 14.1573 20.9753 14.1573C21.295 14.1573 21.6016 14.035 21.8277 13.8173C22.0537 13.5996 22.1807 13.3044 22.1807 12.9965C22.1807 12.6887 22.0537 12.3935 21.8277 12.1758C21.6016 11.9581 21.295 11.8358 20.9753 11.8358C20.6557 11.8358 20.3491 11.9581 20.123 12.1758C19.897 12.3935 19.77 12.6887 19.77 12.9965ZM26.972 8.13315L26.2578 6.93181C26.2257 6.87885 26.1731 6.84028 26.1116 6.82451C26.0501 6.80874 25.9846 6.81706 25.9294 6.84766L24.4016 7.70659L22.0421 1.43292C21.9175 1.05858 21.6726 0.73204 21.3428 0.500458C21.0129 0.268877 20.6151 0.144236 20.2069 0.144532H7.14989C6.10425 0.144532 5.17612 0.794532 4.85369 1.75502L2.6057 7.70949L1.07489 6.85056C1.0197 6.81997 0.954182 6.81164 0.892641 6.82741C0.831101 6.84318 0.778538 6.88175 0.746432 6.93471L0.032258 8.13315C-0.0340367 8.24342 0.00513749 8.3827 0.119646 8.44654L1.93974 9.46797L1.50279 10.6287C1.46663 10.7215 1.44855 10.8202 1.44855 10.9189V21.0229C1.44855 21.4785 1.80413 21.847 2.24108 21.847H4.27813C4.64878 21.847 4.97121 21.5771 5.04956 21.1999L5.28159 20.1059H21.7227L21.9547 21.1999C22.0361 21.5771 22.3555 21.847 22.7261 21.847H24.7632C25.2001 21.847 25.5557 21.4785 25.5557 21.0229V10.9189C25.5557 10.8202 25.5376 10.7215 25.5015 10.6287L25.0645 9.46797L26.8816 8.44654C26.9363 8.41613 26.9764 8.36625 26.9933 8.30764C27.0102 8.24903 27.0026 8.18638 26.972 8.13315ZM23.3861 11.1394V18.0166H3.6182V11.1394L4.08828 9.89163H22.916L23.3861 11.1394ZM6.89375 2.46596L6.90882 2.42824L6.92087 2.39051C6.95402 2.29475 7.04442 2.23092 7.14989 2.23092H20.0352L22.3073 8.26663H4.70302L6.89375 2.46596ZM4.82355 12.9965C4.82355 13.3044 4.95055 13.5996 5.17659 13.8173C5.40264 14.035 5.70923 14.1573 6.02891 14.1573C6.34859 14.1573 6.65518 14.035 6.88123 13.8173C7.10727 13.5996 7.23427 13.3044 7.23427 12.9965C7.23427 12.6887 7.10727 12.3935 6.88123 12.1758C6.65518 11.9581 6.34859 11.8358 6.02891 11.8358C5.70923 11.8358 5.40264 11.9581 5.17659 12.1758C4.95055 12.3935 4.82355 12.6887 4.82355 12.9965Z" fill="#40484B"/>
</svg>
